<?xml version="1.0" encoding="UTF-8" standalone="no"?><!DOCTYPE svg PUBLIC "-//W3C//DTD SVG 1.1//EN" "http://www.w3.org/Graphics/SVG/1.1/DTD/svg11.dtd"><svg width="100%" height="100%" viewBox="0 0 1517 871" version="1.1" xmlns="http://www.w3.org/2000/svg" xmlns:xlink="http://www.w3.org/1999/xlink" xml:space="preserve" xmlns:serif="http://www.serif.com/" style="fill-rule:evenodd;clip-rule:evenodd;stroke-miterlimit:10;"><g id="_0" serif:id="0"><g><path d="M326.825,675.588c-3.496,3.421 -3.55,9.034 -0.125,12.525c0.038,0.042 0.079,0.084 0.125,0.125c-0.533,1.1 -0.075,2.425 1.029,2.954c0.988,0.48 2.179,0.159 2.796,-0.75c4.713,1.317 9.596,-1.441 10.908,-6.154c0.017,-0.058 0.03,-0.108 0.046,-0.166c1.221,-0.092 2.138,-1.155 2.046,-2.371c-0.079,-1.096 -0.95,-1.967 -2.046,-2.05c-1.221,-4.734 -6.05,-7.588 -10.787,-6.367c-0.059,0.013 -0.113,0.029 -0.167,0.046c-0.687,-1.013 -2.067,-1.275 -3.075,-0.588c-0.908,0.621 -1.229,1.809 -0.75,2.796Z" style="fill:none;fill-rule:nonzero;stroke:#000;stroke-width:1.18px;"/><path d="M322.203,700.291l38.975,0c5.167,0 9.729,3.35 11.288,8.267c2.858,9.058 10.62,15.704 20.012,17.129l22.158,-0c0.938,-0 1.838,0.375 2.505,1.037l7.962,7.963c0.663,0.667 1.038,1.567 1.038,2.504l-0,4.958l20.041,0l0,21.946l-20.041,0l-0,5.596c-0,0.942 -0.375,1.842 -1.038,2.504l-7.962,7.967c-0.667,0.662 -1.567,1.037 -2.505,1.037l-32.5,0c-0.941,0 -1.841,-0.375 -2.508,-1.037l-7.962,-7.967c-0.663,-0.662 -1.038,-1.562 -1.038,-2.504l0,-2.075c-0.637,-7.35 -6.796,-12.992 -14.171,-12.992l-15.266,0c-2.35,2.292 -6.096,2.292 -8.446,0l-10.542,0c-5.217,0 -9.45,-4.233 -9.45,-9.454l0,-6.566l-20.075,-0l0,-22.438l20.075,0l0,-6.425c0,-5.217 4.233,-9.45 9.45,-9.45Z" style="fill:none;fill-rule:nonzero;stroke:#000;stroke-width:1.18px;"/><rect x="410.698" y="623.447" width="6.233" height="5.904" style="fill:none;stroke:#000;stroke-width:1.18px;"/><rect x="381.023" y="623.447" width="6.233" height="5.904" style="fill:none;stroke:#000;stroke-width:1.18px;"/><path d="M467.027,613.525c0,-3.335 -2.708,-6.043 -6.044,-6.043c-3.335,-0 -6.043,2.708 -6.043,6.043c-0,3.336 2.708,6.044 6.043,6.044c3.336,0 6.044,-2.708 6.044,-6.044Z" style="fill:none;stroke:#000;stroke-width:1.18px;"/><path d="M343.012,613.525c-0,-3.335 -2.708,-6.043 -6.044,-6.043c-3.336,-0 -6.044,2.708 -6.044,6.043c0,3.336 2.708,6.044 6.044,6.044c3.336,0 6.044,-2.708 6.044,-6.044Z" style="fill:none;stroke:#000;stroke-width:1.18px;"/><path d="M467.027,750.297c0,-3.336 -2.708,-6.044 -6.044,-6.044c-3.335,0 -6.043,2.708 -6.043,6.044c-0,3.336 2.708,6.044 6.043,6.044c3.336,-0 6.044,-2.708 6.044,-6.044Z" style="fill:none;stroke:#000;stroke-width:1.18px;"/><path d="M471.128,688.239c3.492,-3.425 3.55,-9.038 0.121,-12.53l-0.121,-0.12c0.53,-1.105 0.071,-2.425 -1.033,-2.959c-0.987,-0.475 -2.179,-0.158 -2.792,0.75c-4.716,-1.316 -9.6,1.442 -10.912,6.154c-0.017,0.059 -0.029,0.113 -0.046,0.167c-1.221,0.092 -2.137,1.154 -2.042,2.375c0.075,1.092 0.946,1.963 2.042,2.046c1.221,4.733 6.05,7.587 10.788,6.367c0.058,-0.013 0.112,-0.03 0.17,-0.046c0.688,1.012 2.063,1.275 3.075,0.587c0.909,-0.616 1.225,-1.808 0.75,-2.791Z" style="fill:none;fill-rule:nonzero;stroke:#000;stroke-width:1.18px;"/><path d="M417.873,681.911c0,-10.429 -8.467,-18.896 -18.897,-18.896c-10.43,0 -18.898,8.467 -18.898,18.896c-0,10.429 8.468,18.896 18.898,18.896c10.43,-0 18.897,-8.467 18.897,-18.896Z" style="fill:none;stroke:#000;stroke-width:1.18px;"/><path d="M328.111,593.329c-9.788,0 -17.717,7.929 -17.717,17.717" style="fill:none;fill-rule:nonzero;stroke:#000;stroke-width:1.18px;"/><path d="M310.395,752.777c-0,9.787 7.929,17.717 17.716,17.717" style="fill:none;fill-rule:nonzero;stroke:#000;stroke-width:1.18px;"/><path d="M469.843,770.494c9.783,-0 17.717,-7.93 17.717,-17.717" style="fill:none;fill-rule:nonzero;stroke:#000;stroke-width:1.18px;"/><path d="M487.559,611.045c0,-9.787 -7.933,-17.716 -17.716,-17.716" style="fill:none;fill-rule:nonzero;stroke:#000;stroke-width:1.18px;"/><path d="M326.825,462.99c-3.496,3.421 -3.55,9.034 -0.125,12.525c0.038,0.042 0.079,0.079 0.125,0.121c-0.533,1.104 -0.075,2.425 1.029,2.958c0.988,0.475 2.179,0.159 2.796,-0.75c4.713,1.317 9.596,-1.441 10.908,-6.154c0.017,-0.058 0.03,-0.108 0.046,-0.166c1.221,-0.092 2.138,-1.155 2.046,-2.371c-0.079,-1.096 -0.95,-1.967 -2.046,-2.05c-1.221,-4.734 -6.05,-7.588 -10.787,-6.367c-0.059,0.013 -0.113,0.029 -0.167,0.046c-0.687,-1.013 -2.067,-1.275 -3.075,-0.588c-0.908,0.621 -1.229,1.809 -0.75,2.796Z" style="fill:none;fill-rule:nonzero;stroke:#000;stroke-width:1.18px;"/><path d="M322.203,487.693l38.975,0c5.167,0 9.729,3.346 11.288,8.267c2.858,9.058 10.62,15.7 20.012,17.129l22.158,0c0.938,0 1.838,0.375 2.505,1.038l7.962,7.962c0.663,0.663 1.038,1.567 1.038,2.504l-0,4.959l20.041,-0l0,21.945l-20.041,0l-0,5.592c-0,0.942 -0.375,1.846 -1.038,2.508l-7.962,7.963c-0.667,0.667 -1.567,1.037 -2.505,1.037l-32.5,0c-0.941,0 -1.841,-0.37 -2.508,-1.037l-7.962,-7.963c-0.663,-0.662 -1.038,-1.566 -1.038,-2.508l0,-2.075c-0.637,-7.346 -6.796,-12.992 -14.171,-12.992l-15.266,0c-2.35,2.292 -6.096,2.292 -8.446,0l-10.542,0c-5.217,0 -9.45,-4.229 -9.45,-9.45l0,-6.566l-20.075,-0l0,-22.438l20.075,0l0,-6.425c0,-5.216 4.233,-9.45 9.45,-9.45Z" style="fill:none;fill-rule:nonzero;stroke:#000;stroke-width:1.18px;"/><rect x="410.698" y="410.852" width="6.233" height="5.904" style="fill:none;stroke:#000;stroke-width:1.18px;"/><rect x="381.023" y="410.852" width="6.233" height="5.904" style="fill:none;stroke:#000;stroke-width:1.18px;"/><path d="M467.027,400.928c0,-3.336 -2.708,-6.044 -6.044,-6.044c-3.335,0 -6.043,2.708 -6.043,6.044c-0,3.335 2.708,6.044 6.043,6.044c3.336,-0 6.044,-2.709 6.044,-6.044Z" style="fill:none;stroke:#000;stroke-width:1.18px;"/><path d="M343.012,400.928c-0,-3.336 -2.708,-6.044 -6.044,-6.044c-3.336,0 -6.044,2.708 -6.044,6.044c0,3.335 2.708,6.044 6.044,6.044c3.336,-0 6.044,-2.709 6.044,-6.044Z" style="fill:none;stroke:#000;stroke-width:1.18px;"/><path d="M467.027,537.699c0,-3.335 -2.708,-6.043 -6.044,-6.043c-3.335,-0 -6.043,2.708 -6.043,6.043c-0,3.336 2.708,6.044 6.043,6.044c3.336,0 6.044,-2.708 6.044,-6.044Z" style="fill:none;stroke:#000;stroke-width:1.18px;"/><path d="M471.128,475.637c3.492,-3.421 3.55,-9.033 0.121,-12.525c-0.037,-0.042 -0.079,-0.083 -0.121,-0.121c0.53,-1.104 0.071,-2.429 -1.033,-2.958c-0.987,-0.479 -2.179,-0.159 -2.792,0.75c-4.716,-1.317 -9.6,1.441 -10.912,6.154c-0.017,0.058 -0.029,0.108 -0.046,0.167c-1.221,0.091 -2.137,1.154 -2.042,2.37c0.075,1.096 0.946,1.967 2.042,2.05c1.221,4.734 6.05,7.588 10.788,6.367c0.058,-0.012 0.112,-0.029 0.17,-0.046c0.688,1.013 2.063,1.275 3.075,0.588c0.909,-0.621 1.225,-1.809 0.75,-2.796Z" style="fill:none;fill-rule:nonzero;stroke:#000;stroke-width:1.18px;"/><path d="M417.873,469.314c0,-10.429 -8.467,-18.896 -18.897,-18.896c-10.43,-0 -18.898,8.467 -18.898,18.896c-0,10.429 8.468,18.895 18.898,18.895c10.43,0 18.897,-8.466 18.897,-18.895Z" style="fill:none;stroke:#000;stroke-width:1.18px;"/><path d="M328.111,380.731c-9.788,0 -17.717,7.929 -17.717,17.717" style="fill:none;fill-rule:nonzero;stroke:#000;stroke-width:1.18px;"/><path d="M310.395,540.179c-0,9.788 7.929,17.717 17.716,17.717" style="fill:none;fill-rule:nonzero;stroke:#000;stroke-width:1.18px;"/><path d="M469.843,557.896c9.783,0 17.717,-7.929 17.717,-17.717" style="fill:none;fill-rule:nonzero;stroke:#000;stroke-width:1.18px;"/><path d="M487.559,398.448c0,-9.788 -7.933,-17.717 -17.716,-17.717" style="fill:none;fill-rule:nonzero;stroke:#000;stroke-width:1.18px;"/><path d="M326.825,250.391c-3.496,3.425 -3.55,9.033 -0.125,12.525c0.038,0.041 0.079,0.083 0.125,0.125c-0.533,1.1 -0.075,2.425 1.029,2.958c0.988,0.475 2.179,0.158 2.796,-0.75c4.713,1.313 9.596,-1.446 10.908,-6.158c0.017,-0.054 0.03,-0.109 0.046,-0.167c1.221,-0.092 2.138,-1.154 2.046,-2.371c-0.079,-1.096 -0.95,-1.966 -2.046,-2.046c-1.221,-4.737 -6.05,-7.591 -10.787,-6.37c-0.059,0.012 -0.113,0.029 -0.167,0.045c-0.687,-1.012 -2.067,-1.275 -3.075,-0.587c-0.908,0.621 -1.229,1.808 -0.75,2.796Z" style="fill:none;fill-rule:nonzero;stroke:#000;stroke-width:1.18px;"/><path d="M322.203,275.096l38.975,-0c5.167,-0 9.729,3.346 11.288,8.266c2.858,9.059 10.62,15.7 20.012,17.125l22.158,0c0.938,0 1.838,0.375 2.505,1.038l7.962,7.967c0.663,0.662 1.038,1.562 1.038,2.504l-0,4.954l20.041,-0l0,21.95l-20.041,-0l-0,5.592c-0,0.941 -0.375,1.845 -1.038,2.508l-7.962,7.962c-0.667,0.663 -1.567,1.038 -2.505,1.038l-32.5,-0c-0.941,-0 -1.841,-0.375 -2.508,-1.038l-7.962,-7.962c-0.663,-0.663 -1.038,-1.567 -1.038,-2.508l0,-2.075c-0.637,-7.35 -6.796,-12.992 -14.171,-12.992l-15.266,-0c-2.35,2.292 -6.096,2.292 -8.446,-0l-10.542,-0c-5.217,-0 -9.45,-4.229 -9.45,-9.45l0,-6.567l-20.075,0l0,-22.441l20.075,-0l0,-6.421c0,-5.221 4.233,-9.45 9.45,-9.45Z" style="fill:none;fill-rule:nonzero;stroke:#000;stroke-width:1.18px;"/><rect x="410.698" y="198.252" width="6.233" height="5.904" style="fill:none;stroke:#000;stroke-width:1.18px;"/><rect x="381.023" y="198.252" width="6.233" height="5.904" style="fill:none;stroke:#000;stroke-width:1.18px;"/><path d="M467.027,188.33c0,-3.335 -2.708,-6.043 -6.044,-6.043c-3.335,-0 -6.043,2.708 -6.043,6.043c-0,3.336 2.708,6.044 6.043,6.044c3.336,0 6.044,-2.708 6.044,-6.044Z" style="fill:none;stroke:#000;stroke-width:1.18px;"/><path d="M343.012,188.33c-0,-3.335 -2.708,-6.043 -6.044,-6.043c-3.336,-0 -6.044,2.708 -6.044,6.043c0,3.336 2.708,6.044 6.044,6.044c3.336,0 6.044,-2.708 6.044,-6.044Z" style="fill:none;stroke:#000;stroke-width:1.18px;"/><path d="M467.027,325.102c0,-3.336 -2.708,-6.044 -6.044,-6.044c-3.335,0 -6.043,2.708 -6.043,6.044c-0,3.336 2.708,6.044 6.043,6.044c3.336,-0 6.044,-2.708 6.044,-6.044Z" style="fill:none;stroke:#000;stroke-width:1.18px;"/><path d="M471.128,263.039c3.492,-3.425 3.55,-9.033 0.121,-12.525l-0.121,-0.125c0.53,-1.1 0.071,-2.425 -1.033,-2.958c-0.987,-0.475 -2.179,-0.159 -2.792,0.75c-4.716,-1.313 -9.6,1.446 -10.912,6.158c-0.017,0.054 -0.029,0.108 -0.046,0.167c-1.221,0.091 -2.137,1.154 -2.042,2.371c0.075,1.095 0.946,1.966 2.042,2.045c1.221,4.738 6.05,7.592 10.788,6.371c0.058,-0.012 0.112,-0.029 0.17,-0.046c0.688,1.013 2.063,1.275 3.075,0.588c0.909,-0.621 1.225,-1.808 0.75,-2.796Z" style="fill:none;fill-rule:nonzero;stroke:#000;stroke-width:1.18px;"/><path d="M417.873,256.716c0,-10.43 -8.467,-18.898 -18.897,-18.898c-10.43,0 -18.898,8.468 -18.898,18.898c-0,10.43 8.468,18.898 18.898,18.898c10.43,0 18.897,-8.468 18.897,-18.898Z" style="fill:none;stroke:#000;stroke-width:1.18px;"/><path d="M310.395,327.582c-0,9.783 7.929,17.717 17.716,17.717" style="fill:none;fill-rule:nonzero;stroke:#000;stroke-width:1.18px;"/><path d="M469.843,345.298c9.783,0 17.717,-7.933 17.717,-17.716" style="fill:none;fill-rule:nonzero;stroke:#000;stroke-width:1.18px;"/><path d="M487.559,185.848c0,-9.783 -7.933,-17.716 -17.716,-17.716" style="fill:none;fill-rule:nonzero;stroke:#000;stroke-width:1.18px;"/><path d="M463.992,144.513c26.021,-0 47.187,21.166 47.187,47.183l0,555.233c0,26.017 -21.166,47.188 -47.187,47.188l-130.034,-0c-26.016,-0 -47.187,-21.171 -47.187,-47.188l-0,-555.233c-0,-26.017 21.171,-47.183 47.187,-47.183l130.034,-0Z" style="fill:none;fill-rule:nonzero;stroke:#000;stroke-width:2.95px;stroke-linecap:round;stroke-linejoin:round;"/></g><g><path d="M551.233,675.588c-3.495,3.421 -3.55,9.034 -0.125,12.525c0.038,0.042 0.08,0.084 0.125,0.125c-0.533,1.1 -0.075,2.425 1.03,2.954c0.987,0.48 2.179,0.159 2.795,-0.75c4.713,1.317 9.596,-1.441 10.909,-6.154c0.016,-0.058 0.029,-0.108 0.046,-0.166c1.22,-0.092 2.137,-1.155 2.045,-2.371c-0.079,-1.096 -0.95,-1.967 -2.045,-2.05c-1.221,-4.734 -6.05,-7.588 -10.788,-6.367c-0.058,0.013 -0.112,0.029 -0.167,0.046c-0.687,-1.013 -2.066,-1.275 -3.075,-0.588c-0.908,0.621 -1.229,1.809 -0.75,2.796Z" style="fill:none;fill-rule:nonzero;stroke:#000;stroke-width:1.18px;"/><path d="M546.611,700.291l38.975,0c5.167,0 9.73,3.35 11.288,8.267c2.858,9.058 10.621,15.704 20.012,17.129l22.159,-0c0.937,-0 1.837,0.375 2.504,1.037l7.962,7.963c0.663,0.667 1.038,1.567 1.038,2.504l-0,4.958l20.042,0l-0,21.946l-20.042,0l-0,5.596c-0,0.942 -0.375,1.842 -1.038,2.504l-7.962,7.967c-0.667,0.662 -1.567,1.037 -2.504,1.037l-32.5,0c-0.942,0 -1.842,-0.375 -2.509,-1.037l-7.962,-7.967c-0.663,-0.662 -1.038,-1.562 -1.038,-2.504l0,-2.075c-0.637,-7.35 -6.795,-12.992 -14.17,-12.992l-15.267,0c-2.35,2.292 -6.096,2.292 -8.446,0l-10.542,0c-5.216,0 -9.45,-4.233 -9.45,-9.454l0,-6.566l-20.075,-0l0,-22.438l20.075,0l0,-6.425c0,-5.217 4.234,-9.45 9.45,-9.45Z" style="fill:none;fill-rule:nonzero;stroke:#000;stroke-width:1.18px;"/><rect x="635.106" y="623.447" width="6.233" height="5.904" style="fill:none;stroke:#000;stroke-width:1.18px;"/><rect x="605.431" y="623.447" width="6.233" height="5.904" style="fill:none;stroke:#000;stroke-width:1.18px;"/><path d="M691.436,613.525c-0,-3.335 -2.709,-6.043 -6.044,-6.043c-3.336,-0 -6.044,2.708 -6.044,6.043c0,3.336 2.708,6.044 6.044,6.044c3.335,0 6.044,-2.708 6.044,-6.044Z" style="fill:none;stroke:#000;stroke-width:1.18px;"/><path d="M567.42,613.525c0,-3.335 -2.708,-6.043 -6.044,-6.043c-3.335,-0 -6.043,2.708 -6.043,6.043c-0,3.336 2.708,6.044 6.043,6.044c3.336,0 6.044,-2.708 6.044,-6.044Z" style="fill:none;stroke:#000;stroke-width:1.18px;"/><path d="M691.436,750.297c-0,-3.336 -2.709,-6.044 -6.044,-6.044c-3.336,0 -6.044,2.708 -6.044,6.044c0,3.336 2.708,6.044 6.044,6.044c3.335,-0 6.044,-2.708 6.044,-6.044Z" style="fill:none;stroke:#000;stroke-width:1.18px;"/><path d="M695.537,688.239c3.491,-3.425 3.55,-9.038 0.121,-12.53l-0.121,-0.12c0.529,-1.105 0.071,-2.425 -1.034,-2.959c-0.987,-0.475 -2.179,-0.158 -2.791,0.75c-4.717,-1.316 -9.6,1.442 -10.913,6.154c-0.016,0.059 -0.029,0.113 -0.046,0.167c-1.22,0.092 -2.137,1.154 -2.041,2.375c0.075,1.092 0.946,1.963 2.041,2.046c1.221,4.733 6.05,7.587 10.788,6.367c0.058,-0.013 0.112,-0.03 0.171,-0.046c0.687,1.012 2.062,1.275 3.075,0.587c0.908,-0.616 1.225,-1.808 0.75,-2.791Z" style="fill:none;fill-rule:nonzero;stroke:#000;stroke-width:1.18px;"/><path d="M642.282,681.911c-0,-10.429 -8.468,-18.896 -18.898,-18.896c-10.43,0 -18.898,8.467 -18.898,18.896c-0,10.429 8.468,18.896 18.898,18.896c10.43,-0 18.898,-8.467 18.898,-18.896Z" style="fill:none;stroke:#000;stroke-width:1.18px;"/><path d="M552.519,593.329c-9.787,0 -17.716,7.929 -17.716,17.717" style="fill:none;fill-rule:nonzero;stroke:#000;stroke-width:1.18px;"/><path d="M534.803,752.777c0,9.787 7.929,17.717 17.717,17.717" style="fill:none;fill-rule:nonzero;stroke:#000;stroke-width:1.18px;"/><path d="M694.251,770.494c9.784,-0 17.717,-7.93 17.717,-17.717" style="fill:none;fill-rule:nonzero;stroke:#000;stroke-width:1.18px;"/><path d="M711.968,611.045c-0,-9.787 -7.934,-17.716 -17.717,-17.716" style="fill:none;fill-rule:nonzero;stroke:#000;stroke-width:1.18px;"/><path d="M551.233,462.99c-3.495,3.421 -3.55,9.034 -0.125,12.525c0.038,0.042 0.08,0.079 0.125,0.121c-0.533,1.104 -0.075,2.425 1.03,2.958c0.987,0.475 2.179,0.159 2.795,-0.75c4.713,1.317 9.596,-1.441 10.909,-6.154c0.016,-0.058 0.029,-0.108 0.046,-0.166c1.22,-0.092 2.137,-1.155 2.045,-2.371c-0.079,-1.096 -0.95,-1.967 -2.045,-2.05c-1.221,-4.734 -6.05,-7.588 -10.788,-6.367c-0.058,0.013 -0.112,0.029 -0.167,0.046c-0.687,-1.013 -2.066,-1.275 -3.075,-0.588c-0.908,0.621 -1.229,1.809 -0.75,2.796Z" style="fill:none;fill-rule:nonzero;stroke:#000;stroke-width:1.18px;"/><path d="M546.611,487.693l38.975,0c5.167,0 9.73,3.346 11.288,8.267c2.858,9.058 10.621,15.7 20.012,17.129l22.159,0c0.937,0 1.837,0.375 2.504,1.038l7.962,7.962c0.663,0.663 1.038,1.567 1.038,2.504l-0,4.959l20.042,-0l-0,21.945l-20.042,0l-0,5.592c-0,0.942 -0.375,1.846 -1.038,2.508l-7.962,7.963c-0.667,0.667 -1.567,1.037 -2.504,1.037l-32.5,0c-0.942,0 -1.842,-0.37 -2.509,-1.037l-7.962,-7.963c-0.663,-0.662 -1.038,-1.566 -1.038,-2.508l0,-2.075c-0.637,-7.346 -6.795,-12.992 -14.17,-12.992l-15.267,0c-2.35,2.292 -6.096,2.292 -8.446,0l-10.542,0c-5.216,0 -9.45,-4.229 -9.45,-9.45l0,-6.566l-20.075,-0l0,-22.438l20.075,0l0,-6.425c0,-5.216 4.234,-9.45 9.45,-9.45Z" style="fill:none;fill-rule:nonzero;stroke:#000;stroke-width:1.18px;"/><rect x="635.106" y="410.852" width="6.233" height="5.904" style="fill:none;stroke:#000;stroke-width:1.18px;"/><rect x="605.431" y="410.852" width="6.233" height="5.904" style="fill:none;stroke:#000;stroke-width:1.18px;"/><path d="M691.436,400.928c-0,-3.336 -2.709,-6.044 -6.044,-6.044c-3.336,0 -6.044,2.708 -6.044,6.044c0,3.335 2.708,6.044 6.044,6.044c3.335,-0 6.044,-2.709 6.044,-6.044Z" style="fill:none;stroke:#000;stroke-width:1.18px;"/><path d="M567.42,400.928c0,-3.336 -2.708,-6.044 -6.044,-6.044c-3.335,0 -6.043,2.708 -6.043,6.044c-0,3.335 2.708,6.044 6.043,6.044c3.336,-0 6.044,-2.709 6.044,-6.044Z" style="fill:none;stroke:#000;stroke-width:1.18px;"/><path d="M691.436,537.699c-0,-3.335 -2.709,-6.043 -6.044,-6.043c-3.336,-0 -6.044,2.708 -6.044,6.043c0,3.336 2.708,6.044 6.044,6.044c3.335,0 6.044,-2.708 6.044,-6.044Z" style="fill:none;stroke:#000;stroke-width:1.18px;"/><path d="M695.537,475.637c3.491,-3.421 3.55,-9.033 0.121,-12.525c-0.038,-0.042 -0.08,-0.083 -0.121,-0.121c0.529,-1.104 0.071,-2.429 -1.034,-2.958c-0.987,-0.479 -2.179,-0.159 -2.791,0.75c-4.717,-1.317 -9.6,1.441 -10.913,6.154c-0.016,0.058 -0.029,0.108 -0.046,0.167c-1.22,0.091 -2.137,1.154 -2.041,2.37c0.075,1.096 0.946,1.967 2.041,2.05c1.221,4.734 6.05,7.588 10.788,6.367c0.058,-0.012 0.112,-0.029 0.171,-0.046c0.687,1.013 2.062,1.275 3.075,0.588c0.908,-0.621 1.225,-1.809 0.75,-2.796Z" style="fill:none;fill-rule:nonzero;stroke:#000;stroke-width:1.18px;"/><path d="M642.282,469.314c-0,-10.429 -8.468,-18.896 -18.898,-18.896c-10.43,-0 -18.898,8.467 -18.898,18.896c-0,10.429 8.468,18.895 18.898,18.895c10.43,0 18.898,-8.466 18.898,-18.895Z" style="fill:none;stroke:#000;stroke-width:1.18px;"/><path d="M552.519,380.731c-9.787,0 -17.716,7.929 -17.716,17.717" style="fill:none;fill-rule:nonzero;stroke:#000;stroke-width:1.18px;"/><path d="M534.803,540.179c0,9.788 7.929,17.717 17.717,17.717" style="fill:none;fill-rule:nonzero;stroke:#000;stroke-width:1.18px;"/><path d="M694.251,557.896c9.784,0 17.717,-7.929 17.717,-17.717" style="fill:none;fill-rule:nonzero;stroke:#000;stroke-width:1.18px;"/><path d="M711.968,398.448c-0,-9.788 -7.934,-17.717 -17.717,-17.717" style="fill:none;fill-rule:nonzero;stroke:#000;stroke-width:1.18px;"/><path d="M551.233,250.391c-3.495,3.425 -3.55,9.033 -0.125,12.525c0.038,0.041 0.08,0.083 0.125,0.125c-0.533,1.1 -0.075,2.425 1.03,2.958c0.987,0.475 2.179,0.158 2.795,-0.75c4.713,1.313 9.596,-1.446 10.909,-6.158c0.016,-0.054 0.029,-0.109 0.046,-0.167c1.22,-0.092 2.137,-1.154 2.045,-2.371c-0.079,-1.096 -0.95,-1.966 -2.045,-2.046c-1.221,-4.737 -6.05,-7.591 -10.788,-6.37c-0.058,0.012 -0.112,0.029 -0.167,0.045c-0.687,-1.012 -2.066,-1.275 -3.075,-0.587c-0.908,0.621 -1.229,1.808 -0.75,2.796Z" style="fill:none;fill-rule:nonzero;stroke:#000;stroke-width:1.18px;"/><path d="M546.611,275.096l38.975,-0c5.167,-0 9.73,3.346 11.288,8.266c2.858,9.059 10.621,15.7 20.012,17.125l22.159,0c0.937,0 1.837,0.375 2.504,1.038l7.962,7.967c0.663,0.662 1.038,1.562 1.038,2.504l-0,4.954l20.042,-0l-0,21.95l-20.042,-0l-0,5.592c-0,0.941 -0.375,1.845 -1.038,2.508l-7.962,7.962c-0.667,0.663 -1.567,1.038 -2.504,1.038l-32.5,-0c-0.942,-0 -1.842,-0.375 -2.509,-1.038l-7.962,-7.962c-0.663,-0.663 -1.038,-1.567 -1.038,-2.508l0,-2.075c-0.637,-7.35 -6.795,-12.992 -14.17,-12.992l-15.267,-0c-2.35,2.292 -6.096,2.292 -8.446,-0l-10.542,-0c-5.216,-0 -9.45,-4.229 -9.45,-9.45l0,-6.567l-20.075,0l0,-22.441l20.075,-0l0,-6.421c0,-5.221 4.234,-9.45 9.45,-9.45Z" style="fill:none;fill-rule:nonzero;stroke:#000;stroke-width:1.18px;"/><rect x="635.106" y="198.252" width="6.233" height="5.904" style="fill:none;stroke:#000;stroke-width:1.18px;"/><rect x="605.431" y="198.252" width="6.233" height="5.904" style="fill:none;stroke:#000;stroke-width:1.18px;"/><path d="M691.436,188.33c-0,-3.335 -2.709,-6.043 -6.044,-6.043c-3.336,-0 -6.044,2.708 -6.044,6.043c0,3.336 2.708,6.044 6.044,6.044c3.335,0 6.044,-2.708 6.044,-6.044Z" style="fill:none;stroke:#000;stroke-width:1.18px;"/><path d="M567.42,188.33c0,-3.335 -2.708,-6.043 -6.044,-6.043c-3.335,-0 -6.043,2.708 -6.043,6.043c-0,3.336 2.708,6.044 6.043,6.044c3.336,0 6.044,-2.708 6.044,-6.044Z" style="fill:none;stroke:#000;stroke-width:1.18px;"/><path d="M691.436,325.102c-0,-3.336 -2.709,-6.044 -6.044,-6.044c-3.336,0 -6.044,2.708 -6.044,6.044c0,3.336 2.708,6.044 6.044,6.044c3.335,-0 6.044,-2.708 6.044,-6.044Z" style="fill:none;stroke:#000;stroke-width:1.18px;"/><path d="M695.537,263.039c3.491,-3.425 3.55,-9.033 0.121,-12.525l-0.121,-0.125c0.529,-1.1 0.071,-2.425 -1.034,-2.958c-0.987,-0.475 -2.179,-0.159 -2.791,0.75c-4.717,-1.313 -9.6,1.446 -10.913,6.158c-0.016,0.054 -0.029,0.108 -0.046,0.167c-1.22,0.091 -2.137,1.154 -2.041,2.371c0.075,1.095 0.946,1.966 2.041,2.045c1.221,4.738 6.05,7.592 10.788,6.371c0.058,-0.012 0.112,-0.029 0.171,-0.046c0.687,1.013 2.062,1.275 3.075,0.588c0.908,-0.621 1.225,-1.808 0.75,-2.796Z" style="fill:none;fill-rule:nonzero;stroke:#000;stroke-width:1.18px;"/><path d="M642.282,256.716c-0,-10.43 -8.468,-18.898 -18.898,-18.898c-10.43,0 -18.898,8.468 -18.898,18.898c-0,10.43 8.468,18.898 18.898,18.898c10.43,0 18.898,-8.468 18.898,-18.898Z" style="fill:none;stroke:#000;stroke-width:1.18px;"/><path d="M534.803,327.582c0,9.783 7.929,17.717 17.717,17.717" style="fill:none;fill-rule:nonzero;stroke:#000;stroke-width:1.18px;"/><path d="M694.251,345.298c9.784,0 17.717,-7.933 17.717,-17.716" style="fill:none;fill-rule:nonzero;stroke:#000;stroke-width:1.18px;"/><path d="M711.968,185.848c-0,-9.783 -7.934,-17.716 -17.717,-17.716" style="fill:none;fill-rule:nonzero;stroke:#000;stroke-width:1.18px;"/><path d="M688.4,144.513c26.021,-0 47.188,21.166 47.188,47.183l-0,555.233c-0,26.017 -21.167,47.188 -47.188,47.188l-130.033,-0c-26.017,-0 -47.188,-21.171 -47.188,-47.188l0,-555.233c0,-26.017 21.171,-47.183 47.188,-47.183l130.033,-0Z" style="fill:none;fill-rule:nonzero;stroke:#000;stroke-width:2.95px;stroke-linecap:round;stroke-linejoin:round;"/></g><g><path d="M775.642,675.588c-3.496,3.421 -3.55,9.034 -0.125,12.525c0.037,0.042 0.079,0.084 0.125,0.125c-0.534,1.1 -0.075,2.425 1.029,2.954c0.987,0.48 2.179,0.159 2.796,-0.75c4.712,1.317 9.596,-1.441 10.908,-6.154c0.017,-0.058 0.029,-0.108 0.046,-0.166c1.221,-0.092 2.137,-1.155 2.046,-2.371c-0.079,-1.096 -0.95,-1.967 -2.046,-2.05c-1.221,-4.734 -6.05,-7.588 -10.788,-6.367c-0.058,0.013 -0.112,0.029 -0.166,0.046c-0.688,-1.013 -2.067,-1.275 -3.075,-0.588c-0.909,0.621 -1.229,1.809 -0.75,2.796Z" style="fill:none;fill-rule:nonzero;stroke:#000;stroke-width:1.18px;"/><path d="M771.02,700.291l38.975,0c5.166,0 9.729,3.35 11.287,8.267c2.859,9.058 10.621,15.704 20.013,17.129l22.158,-0c0.938,-0 1.838,0.375 2.504,1.037l7.963,7.963c0.662,0.667 1.037,1.567 1.037,2.504l0,4.958l20.042,0l-0,21.946l-20.042,0l0,5.596c0,0.942 -0.375,1.842 -1.037,2.504l-7.963,7.967c-0.666,0.662 -1.566,1.037 -2.504,1.037l-32.5,0c-0.942,0 -1.842,-0.375 -2.508,-1.037l-7.963,-7.967c-0.662,-0.662 -1.037,-1.562 -1.037,-2.504l-0,-2.075c-0.638,-7.35 -6.796,-12.992 -14.171,-12.992l-15.267,0c-2.35,2.292 -6.096,2.292 -8.446,0l-10.541,0c-5.217,0 -9.45,-4.233 -9.45,-9.454l-0,-6.566l-20.075,-0l-0,-22.438l20.075,0l-0,-6.425c-0,-5.217 4.233,-9.45 9.45,-9.45Z" style="fill:none;fill-rule:nonzero;stroke:#000;stroke-width:1.18px;"/><rect x="859.515" y="623.447" width="6.233" height="5.904" style="fill:none;stroke:#000;stroke-width:1.18px;"/><rect x="829.84" y="623.447" width="6.233" height="5.904" style="fill:none;stroke:#000;stroke-width:1.18px;"/><path d="M915.844,613.525c-0,-3.335 -2.708,-6.043 -6.044,-6.043c-3.335,-0 -6.044,2.708 -6.044,6.043c0,3.336 2.709,6.044 6.044,6.044c3.336,0 6.044,-2.708 6.044,-6.044Z" style="fill:none;stroke:#000;stroke-width:1.18px;"/><path d="M791.828,613.525c0,-3.335 -2.708,-6.043 -6.043,-6.043c-3.336,-0 -6.044,2.708 -6.044,6.043c-0,3.336 2.708,6.044 6.044,6.044c3.335,0 6.043,-2.708 6.043,-6.044Z" style="fill:none;stroke:#000;stroke-width:1.18px;"/><path d="M915.844,750.297c-0,-3.336 -2.708,-6.044 -6.044,-6.044c-3.335,0 -6.044,2.708 -6.044,6.044c0,3.336 2.709,6.044 6.044,6.044c3.336,-0 6.044,-2.708 6.044,-6.044Z" style="fill:none;stroke:#000;stroke-width:1.18px;"/><path d="M919.945,688.239c3.492,-3.425 3.55,-9.038 0.121,-12.53l-0.121,-0.12c0.529,-1.105 0.071,-2.425 -1.033,-2.959c-0.988,-0.475 -2.179,-0.158 -2.792,0.75c-4.717,-1.316 -9.6,1.442 -10.912,6.154c-0.017,0.059 -0.03,0.113 -0.046,0.167c-1.221,0.092 -2.138,1.154 -2.042,2.375c0.075,1.092 0.946,1.963 2.042,2.046c1.221,4.733 6.05,7.587 10.787,6.367c0.059,-0.013 0.113,-0.03 0.171,-0.046c0.688,1.012 2.063,1.275 3.075,0.587c0.908,-0.616 1.225,-1.808 0.75,-2.791Z" style="fill:none;fill-rule:nonzero;stroke:#000;stroke-width:1.18px;"/><path d="M866.69,681.911c0,-10.429 -8.468,-18.896 -18.898,-18.896c-10.43,0 -18.898,8.467 -18.898,18.896c0,10.429 8.468,18.896 18.898,18.896c10.43,-0 18.898,-8.467 18.898,-18.896Z" style="fill:none;stroke:#000;stroke-width:1.18px;"/><path d="M776.928,593.329c-9.788,0 -17.717,7.929 -17.717,17.717" style="fill:none;fill-rule:nonzero;stroke:#000;stroke-width:1.18px;"/><path d="M759.211,752.777c0,9.787 7.93,17.717 17.717,17.717" style="fill:none;fill-rule:nonzero;stroke:#000;stroke-width:1.18px;"/><path d="M918.66,770.494c9.783,-0 17.716,-7.93 17.716,-17.717" style="fill:none;fill-rule:nonzero;stroke:#000;stroke-width:1.18px;"/><path d="M936.376,611.045c-0,-9.787 -7.933,-17.716 -17.717,-17.716" style="fill:none;fill-rule:nonzero;stroke:#000;stroke-width:1.18px;"/><path d="M775.642,462.99c-3.496,3.421 -3.55,9.034 -0.125,12.525c0.037,0.042 0.079,0.079 0.125,0.121c-0.534,1.104 -0.075,2.425 1.029,2.958c0.987,0.475 2.179,0.159 2.796,-0.75c4.712,1.317 9.596,-1.441 10.908,-6.154c0.017,-0.058 0.029,-0.108 0.046,-0.166c1.221,-0.092 2.137,-1.155 2.046,-2.371c-0.079,-1.096 -0.95,-1.967 -2.046,-2.05c-1.221,-4.734 -6.05,-7.588 -10.788,-6.367c-0.058,0.013 -0.112,0.029 -0.166,0.046c-0.688,-1.013 -2.067,-1.275 -3.075,-0.588c-0.909,0.621 -1.229,1.809 -0.75,2.796Z" style="fill:none;fill-rule:nonzero;stroke:#000;stroke-width:1.18px;"/><path d="M771.02,487.693l38.975,0c5.166,0 9.729,3.346 11.287,8.267c2.859,9.058 10.621,15.7 20.013,17.129l22.158,0c0.938,0 1.838,0.375 2.504,1.038l7.963,7.962c0.662,0.663 1.037,1.567 1.037,2.504l0,4.959l20.042,-0l-0,21.945l-20.042,0l0,5.592c0,0.942 -0.375,1.846 -1.037,2.508l-7.963,7.963c-0.666,0.667 -1.566,1.037 -2.504,1.037l-32.5,0c-0.942,0 -1.842,-0.37 -2.508,-1.037l-7.963,-7.963c-0.662,-0.662 -1.037,-1.566 -1.037,-2.508l-0,-2.075c-0.638,-7.346 -6.796,-12.992 -14.171,-12.992l-15.267,0c-2.35,2.292 -6.096,2.292 -8.446,0l-10.541,0c-5.217,0 -9.45,-4.229 -9.45,-9.45l-0,-6.566l-20.075,-0l-0,-22.438l20.075,0l-0,-6.425c-0,-5.216 4.233,-9.45 9.45,-9.45Z" style="fill:none;fill-rule:nonzero;stroke:#000;stroke-width:1.18px;"/><rect x="859.515" y="410.852" width="6.233" height="5.904" style="fill:none;stroke:#000;stroke-width:1.18px;"/><rect x="829.84" y="410.852" width="6.233" height="5.904" style="fill:none;stroke:#000;stroke-width:1.18px;"/><path d="M915.844,400.928c-0,-3.336 -2.708,-6.044 -6.044,-6.044c-3.335,0 -6.044,2.708 -6.044,6.044c0,3.335 2.709,6.044 6.044,6.044c3.336,-0 6.044,-2.709 6.044,-6.044Z" style="fill:none;stroke:#000;stroke-width:1.18px;"/><path d="M791.828,400.928c0,-3.336 -2.708,-6.044 -6.043,-6.044c-3.336,0 -6.044,2.708 -6.044,6.044c-0,3.335 2.708,6.044 6.044,6.044c3.335,-0 6.043,-2.709 6.043,-6.044Z" style="fill:none;stroke:#000;stroke-width:1.18px;"/><path d="M915.844,537.699c-0,-3.335 -2.708,-6.043 -6.044,-6.043c-3.335,-0 -6.044,2.708 -6.044,6.043c0,3.336 2.709,6.044 6.044,6.044c3.336,0 6.044,-2.708 6.044,-6.044Z" style="fill:none;stroke:#000;stroke-width:1.18px;"/><path d="M919.945,475.637c3.492,-3.421 3.55,-9.033 0.121,-12.525c-0.038,-0.042 -0.079,-0.083 -0.121,-0.121c0.529,-1.104 0.071,-2.429 -1.033,-2.958c-0.988,-0.479 -2.179,-0.159 -2.792,0.75c-4.717,-1.317 -9.6,1.441 -10.912,6.154c-0.017,0.058 -0.03,0.108 -0.046,0.167c-1.221,0.091 -2.138,1.154 -2.042,2.37c0.075,1.096 0.946,1.967 2.042,2.05c1.221,4.734 6.05,7.588 10.787,6.367c0.059,-0.012 0.113,-0.029 0.171,-0.046c0.688,1.013 2.063,1.275 3.075,0.588c0.908,-0.621 1.225,-1.809 0.75,-2.796Z" style="fill:none;fill-rule:nonzero;stroke:#000;stroke-width:1.18px;"/><path d="M866.69,469.314c0,-10.429 -8.468,-18.896 -18.898,-18.896c-10.43,-0 -18.898,8.467 -18.898,18.896c0,10.429 8.468,18.895 18.898,18.895c10.43,0 18.898,-8.466 18.898,-18.895Z" style="fill:none;stroke:#000;stroke-width:1.18px;"/><path d="M776.928,380.731c-9.788,0 -17.717,7.929 -17.717,17.717" style="fill:none;fill-rule:nonzero;stroke:#000;stroke-width:1.18px;"/><path d="M759.211,540.179c0,9.788 7.93,17.717 17.717,17.717" style="fill:none;fill-rule:nonzero;stroke:#000;stroke-width:1.18px;"/><path d="M918.66,557.896c9.783,0 17.716,-7.929 17.716,-17.717" style="fill:none;fill-rule:nonzero;stroke:#000;stroke-width:1.18px;"/><path d="M936.376,398.448c-0,-9.788 -7.933,-17.717 -17.717,-17.717" style="fill:none;fill-rule:nonzero;stroke:#000;stroke-width:1.18px;"/><path d="M775.642,250.391c-3.496,3.425 -3.55,9.033 -0.125,12.525c0.037,0.041 0.079,0.083 0.125,0.125c-0.534,1.1 -0.075,2.425 1.029,2.958c0.987,0.475 2.179,0.158 2.796,-0.75c4.712,1.313 9.596,-1.446 10.908,-6.158c0.017,-0.054 0.029,-0.109 0.046,-0.167c1.221,-0.092 2.137,-1.154 2.046,-2.371c-0.079,-1.096 -0.95,-1.966 -2.046,-2.046c-1.221,-4.737 -6.05,-7.591 -10.788,-6.37c-0.058,0.012 -0.112,0.029 -0.166,0.045c-0.688,-1.012 -2.067,-1.275 -3.075,-0.587c-0.909,0.621 -1.229,1.808 -0.75,2.796Z" style="fill:none;fill-rule:nonzero;stroke:#000;stroke-width:1.18px;"/><path d="M771.02,275.096l38.975,-0c5.166,-0 9.729,3.346 11.287,8.266c2.859,9.059 10.621,15.7 20.013,17.125l22.158,0c0.938,0 1.838,0.375 2.504,1.038l7.963,7.967c0.662,0.662 1.037,1.562 1.037,2.504l0,4.954l20.042,-0l-0,21.95l-20.042,-0l0,5.592c0,0.941 -0.375,1.845 -1.037,2.508l-7.963,7.962c-0.666,0.663 -1.566,1.038 -2.504,1.038l-32.5,-0c-0.942,-0 -1.842,-0.375 -2.508,-1.038l-7.963,-7.962c-0.662,-0.663 -1.037,-1.567 -1.037,-2.508l-0,-2.075c-0.638,-7.35 -6.796,-12.992 -14.171,-12.992l-15.267,-0c-2.35,2.292 -6.096,2.292 -8.446,-0l-10.541,-0c-5.217,-0 -9.45,-4.229 -9.45,-9.45l-0,-6.567l-20.075,0l-0,-22.441l20.075,-0l-0,-6.421c-0,-5.221 4.233,-9.45 9.45,-9.45Z" style="fill:none;fill-rule:nonzero;stroke:#000;stroke-width:1.18px;"/><rect x="859.515" y="198.252" width="6.233" height="5.904" style="fill:none;stroke:#000;stroke-width:1.18px;"/><rect x="829.84" y="198.252" width="6.233" height="5.904" style="fill:none;stroke:#000;stroke-width:1.18px;"/><path d="M915.844,188.33c-0,-3.335 -2.708,-6.043 -6.044,-6.043c-3.335,-0 -6.044,2.708 -6.044,6.043c0,3.336 2.709,6.044 6.044,6.044c3.336,0 6.044,-2.708 6.044,-6.044Z" style="fill:none;stroke:#000;stroke-width:1.18px;"/><path d="M791.828,188.33c0,-3.335 -2.708,-6.043 -6.043,-6.043c-3.336,-0 -6.044,2.708 -6.044,6.043c-0,3.336 2.708,6.044 6.044,6.044c3.335,0 6.043,-2.708 6.043,-6.044Z" style="fill:none;stroke:#000;stroke-width:1.18px;"/><path d="M915.844,325.102c-0,-3.336 -2.708,-6.044 -6.044,-6.044c-3.335,0 -6.044,2.708 -6.044,6.044c0,3.336 2.709,6.044 6.044,6.044c3.336,-0 6.044,-2.708 6.044,-6.044Z" style="fill:none;stroke:#000;stroke-width:1.18px;"/><path d="M919.945,263.039c3.492,-3.425 3.55,-9.033 0.121,-12.525l-0.121,-0.125c0.529,-1.1 0.071,-2.425 -1.033,-2.958c-0.988,-0.475 -2.179,-0.159 -2.792,0.75c-4.717,-1.313 -9.6,1.446 -10.912,6.158c-0.017,0.054 -0.03,0.108 -0.046,0.167c-1.221,0.091 -2.138,1.154 -2.042,2.371c0.075,1.095 0.946,1.966 2.042,2.045c1.221,4.738 6.05,7.592 10.787,6.371c0.059,-0.012 0.113,-0.029 0.171,-0.046c0.688,1.013 2.063,1.275 3.075,0.588c0.908,-0.621 1.225,-1.808 0.75,-2.796Z" style="fill:none;fill-rule:nonzero;stroke:#000;stroke-width:1.18px;"/><path d="M866.69,256.716c0,-10.43 -8.468,-18.898 -18.898,-18.898c-10.43,0 -18.898,8.468 -18.898,18.898c0,10.43 8.468,18.898 18.898,18.898c10.43,0 18.898,-8.468 18.898,-18.898Z" style="fill:none;stroke:#000;stroke-width:1.18px;"/><path d="M759.211,327.582c0,9.783 7.93,17.717 17.717,17.717" style="fill:none;fill-rule:nonzero;stroke:#000;stroke-width:1.18px;"/><path d="M918.66,345.298c9.783,0 17.716,-7.933 17.716,-17.716" style="fill:none;fill-rule:nonzero;stroke:#000;stroke-width:1.18px;"/><path d="M936.376,185.848c-0,-9.783 -7.933,-17.716 -17.717,-17.716" style="fill:none;fill-rule:nonzero;stroke:#000;stroke-width:1.18px;"/><path d="M912.808,144.513c26.021,-0 47.188,21.166 47.188,47.183l-0,555.233c-0,26.017 -21.167,47.188 -47.188,47.188l-130.033,-0c-26.017,-0 -47.187,-21.171 -47.187,-47.188l-0,-555.233c-0,-26.017 21.17,-47.183 47.187,-47.183l130.033,-0Z" style="fill:none;fill-rule:nonzero;stroke:#000;stroke-width:2.95px;stroke-linecap:round;stroke-linejoin:round;"/></g><g><path d="M1000.05,679.352c-3.496,3.421 -3.55,9.033 -0.125,12.525c0.038,0.041 0.079,0.083 0.125,0.125c-0.533,1.1 -0.075,2.425 1.029,2.954c0.988,0.479 2.179,0.158 2.796,-0.75c4.713,1.317 9.596,-1.442 10.908,-6.154c0.017,-0.059 0.03,-0.109 0.046,-0.167c1.221,-0.092 2.138,-1.154 2.046,-2.371c-0.079,-1.096 -0.95,-1.966 -2.046,-2.05c-1.221,-4.733 -6.05,-7.587 -10.787,-6.366c-0.059,0.012 -0.113,0.029 -0.167,0.045c-0.687,-1.012 -2.067,-1.275 -3.075,-0.587c-0.908,0.621 -1.229,1.808 -0.75,2.796Z" style="fill:none;fill-rule:nonzero;stroke:#000;stroke-width:1.18px;"/><path d="M995.428,704.055l38.975,-0c5.167,-0 9.729,3.35 11.288,8.266c2.858,9.059 10.62,15.705 20.012,17.13l22.158,-0c0.938,-0 1.838,0.375 2.505,1.037l7.962,7.963c0.663,0.666 1.038,1.566 1.038,2.504l-0,4.958l20.041,0l0,21.946l-20.041,-0l-0,5.596c-0,0.941 -0.375,1.841 -1.038,2.504l-7.962,7.967c-0.667,0.662 -1.567,1.037 -2.505,1.037l-32.5,0c-0.941,0 -1.841,-0.375 -2.508,-1.037l-7.962,-7.967c-0.663,-0.663 -1.038,-1.563 -1.038,-2.504l0,-2.075c-0.637,-7.35 -6.796,-12.992 -14.171,-12.992l-15.266,0c-2.35,2.292 -6.096,2.292 -8.446,0l-10.542,0c-5.217,0 -9.45,-4.233 -9.45,-9.454l0,-6.567l-20.075,0l0,-22.437l20.075,-0l0,-6.425c0,-5.217 4.233,-9.45 9.45,-9.45Z" style="fill:none;fill-rule:nonzero;stroke:#000;stroke-width:1.18px;"/><rect x="1083.92" y="627.211" width="6.233" height="5.904" style="fill:none;stroke:#000;stroke-width:1.18px;"/><rect x="1054.25" y="627.211" width="6.233" height="5.904" style="fill:none;stroke:#000;stroke-width:1.18px;"/><path d="M1140.25,617.289c0,-3.336 -2.708,-6.044 -6.044,-6.044c-3.335,0 -6.043,2.708 -6.043,6.044c-0,3.336 2.708,6.044 6.043,6.044c3.336,-0 6.044,-2.708 6.044,-6.044Z" style="fill:none;stroke:#000;stroke-width:1.18px;"/><path d="M1016.24,617.289c-0,-3.336 -2.708,-6.044 -6.044,-6.044c-3.336,0 -6.044,2.708 -6.044,6.044c0,3.336 2.708,6.044 6.044,6.044c3.336,-0 6.044,-2.708 6.044,-6.044Z" style="fill:none;stroke:#000;stroke-width:1.18px;"/><path d="M1140.25,754.061c0,-3.336 -2.708,-6.044 -6.044,-6.044c-3.335,-0 -6.043,2.708 -6.043,6.044c-0,3.335 2.708,6.043 6.043,6.043c3.336,0 6.044,-2.708 6.044,-6.043Z" style="fill:none;stroke:#000;stroke-width:1.18px;"/><path d="M1144.35,692.002c3.492,-3.425 3.55,-9.037 0.121,-12.529l-0.121,-0.121c0.53,-1.104 0.071,-2.425 -1.033,-2.958c-0.987,-0.475 -2.179,-0.158 -2.792,0.75c-4.716,-1.317 -9.6,1.442 -10.912,6.154c-0.017,0.058 -0.029,0.113 -0.046,0.167c-1.221,0.091 -2.137,1.154 -2.042,2.375c0.075,1.091 0.946,1.962 2.042,2.046c1.221,4.733 6.05,7.587 10.788,6.366c0.058,-0.012 0.112,-0.029 0.17,-0.046c0.688,1.013 2.063,1.275 3.075,0.588c0.909,-0.617 1.225,-1.808 0.75,-2.792Z" style="fill:none;fill-rule:nonzero;stroke:#000;stroke-width:1.18px;"/><path d="M1091.1,685.675c0,-10.429 -8.467,-18.896 -18.897,-18.896c-10.43,-0 -18.898,8.467 -18.898,18.896c-0,10.429 8.468,18.896 18.898,18.896c10.43,-0 18.897,-8.467 18.897,-18.896Z" style="fill:none;stroke:#000;stroke-width:1.18px;"/><path d="M1001.34,597.093c-9.788,-0 -17.717,7.929 -17.717,17.716" style="fill:none;fill-rule:nonzero;stroke:#000;stroke-width:1.18px;"/><path d="M983.62,756.541c-0,9.787 7.929,17.716 17.716,17.716" style="fill:none;fill-rule:nonzero;stroke:#000;stroke-width:1.18px;"/><path d="M1143.07,774.257c9.783,0 17.717,-7.929 17.717,-17.716" style="fill:none;fill-rule:nonzero;stroke:#000;stroke-width:1.18px;"/><path d="M1160.78,614.809c0,-9.788 -7.933,-17.717 -17.716,-17.717" style="fill:none;fill-rule:nonzero;stroke:#000;stroke-width:1.18px;"/><path d="M1000.05,466.754c-3.496,3.421 -3.55,9.033 -0.125,12.525c0.038,0.042 0.079,0.079 0.125,0.121c-0.533,1.104 -0.075,2.425 1.029,2.958c0.988,0.475 2.179,0.158 2.796,-0.75c4.713,1.317 9.596,-1.442 10.908,-6.154c0.017,-0.058 0.03,-0.108 0.046,-0.167c1.221,-0.091 2.138,-1.154 2.046,-2.371c-0.079,-1.095 -0.95,-1.966 -2.046,-2.05c-1.221,-4.733 -6.05,-7.587 -10.787,-6.366c-0.059,0.012 -0.113,0.029 -0.167,0.046c-0.687,-1.013 -2.067,-1.275 -3.075,-0.588c-0.908,0.621 -1.229,1.808 -0.75,2.796Z" style="fill:none;fill-rule:nonzero;stroke:#000;stroke-width:1.18px;"/><path d="M995.428,491.457l38.975,-0c5.167,-0 9.729,3.346 11.288,8.266c2.858,9.059 10.62,15.7 20.012,17.13l22.158,-0c0.938,-0 1.838,0.375 2.505,1.037l7.962,7.963c0.663,0.662 1.038,1.566 1.038,2.504l-0,4.958l20.041,0l0,21.946l-20.041,-0l-0,5.592c-0,0.941 -0.375,1.845 -1.038,2.508l-7.962,7.962c-0.667,0.667 -1.567,1.038 -2.505,1.038l-32.5,-0c-0.941,-0 -1.841,-0.371 -2.508,-1.038l-7.962,-7.962c-0.663,-0.663 -1.038,-1.567 -1.038,-2.508l0,-2.075c-0.637,-7.346 -6.796,-12.992 -14.171,-12.992l-15.266,-0c-2.35,2.292 -6.096,2.292 -8.446,-0l-10.542,-0c-5.217,-0 -9.45,-4.229 -9.45,-9.45l0,-6.567l-20.075,0l0,-22.437l20.075,-0l0,-6.425c0,-5.217 4.233,-9.45 9.45,-9.45Z" style="fill:none;fill-rule:nonzero;stroke:#000;stroke-width:1.18px;"/><rect x="1083.92" y="414.615" width="6.233" height="5.904" style="fill:none;stroke:#000;stroke-width:1.18px;"/><rect x="1054.25" y="414.615" width="6.233" height="5.904" style="fill:none;stroke:#000;stroke-width:1.18px;"/><path d="M1140.25,404.691c0,-3.335 -2.708,-6.043 -6.044,-6.043c-3.335,-0 -6.043,2.708 -6.043,6.043c-0,3.336 2.708,6.044 6.043,6.044c3.336,0 6.044,-2.708 6.044,-6.044Z" style="fill:none;stroke:#000;stroke-width:1.18px;"/><path d="M1016.24,404.691c-0,-3.335 -2.708,-6.043 -6.044,-6.043c-3.336,-0 -6.044,2.708 -6.044,6.043c0,3.336 2.708,6.044 6.044,6.044c3.336,0 6.044,-2.708 6.044,-6.044Z" style="fill:none;stroke:#000;stroke-width:1.18px;"/><path d="M1140.25,541.463c0,-3.336 -2.708,-6.044 -6.044,-6.044c-3.335,0 -6.043,2.708 -6.043,6.044c-0,3.336 2.708,6.044 6.043,6.044c3.336,-0 6.044,-2.708 6.044,-6.044Z" style="fill:none;stroke:#000;stroke-width:1.18px;"/><path d="M1144.35,479.401c3.492,-3.421 3.55,-9.034 0.121,-12.525c-0.037,-0.042 -0.079,-0.084 -0.121,-0.121c0.53,-1.104 0.071,-2.429 -1.033,-2.959c-0.987,-0.479 -2.179,-0.158 -2.792,0.75c-4.716,-1.316 -9.6,1.442 -10.912,6.155c-0.017,0.058 -0.029,0.108 -0.046,0.166c-1.221,0.092 -2.137,1.154 -2.042,2.371c0.075,1.096 0.946,1.967 2.042,2.05c1.221,4.733 6.05,7.588 10.788,6.367c0.058,-0.013 0.112,-0.029 0.17,-0.046c0.688,1.012 2.063,1.275 3.075,0.587c0.909,-0.62 1.225,-1.808 0.75,-2.795Z" style="fill:none;fill-rule:nonzero;stroke:#000;stroke-width:1.18px;"/><path d="M1091.1,473.077c0,-10.429 -8.467,-18.896 -18.897,-18.896c-10.43,0 -18.898,8.467 -18.898,18.896c-0,10.429 8.468,18.896 18.898,18.896c10.43,0 18.897,-8.467 18.897,-18.896Z" style="fill:none;stroke:#000;stroke-width:1.18px;"/><path d="M1001.34,384.495c-9.788,-0 -17.717,7.929 -17.717,17.716" style="fill:none;fill-rule:nonzero;stroke:#000;stroke-width:1.18px;"/><path d="M983.62,543.943c-0,9.788 7.929,17.717 17.716,17.717" style="fill:none;fill-rule:nonzero;stroke:#000;stroke-width:1.18px;"/><path d="M1143.07,561.66c9.783,-0 17.717,-7.929 17.717,-17.717" style="fill:none;fill-rule:nonzero;stroke:#000;stroke-width:1.18px;"/><path d="M1160.78,402.211c0,-9.787 -7.933,-17.716 -17.716,-17.716" style="fill:none;fill-rule:nonzero;stroke:#000;stroke-width:1.18px;"/><path d="M1000.05,254.154c-3.496,3.425 -3.55,9.034 -0.125,12.525c0.038,0.042 0.079,0.084 0.125,0.125c-0.533,1.1 -0.075,2.425 1.029,2.959c0.988,0.475 2.179,0.158 2.796,-0.75c4.713,1.312 9.596,-1.446 10.908,-6.159c0.017,-0.054 0.03,-0.108 0.046,-0.166c1.221,-0.092 2.138,-1.155 2.046,-2.371c-0.079,-1.096 -0.95,-1.967 -2.046,-2.046c-1.221,-4.738 -6.05,-7.592 -10.787,-6.371c-0.059,0.013 -0.113,0.029 -0.167,0.046c-0.687,-1.013 -2.067,-1.275 -3.075,-0.588c-0.908,0.621 -1.229,1.809 -0.75,2.796Z" style="fill:none;fill-rule:nonzero;stroke:#000;stroke-width:1.18px;"/><path d="M995.428,278.859l38.975,0c5.167,0 9.729,3.346 11.288,8.267c2.858,9.058 10.62,15.7 20.012,17.125l22.158,-0c0.938,-0 1.838,0.375 2.505,1.037l7.962,7.967c0.663,0.663 1.038,1.563 1.038,2.504l-0,4.954l20.041,0l0,21.95l-20.041,0l-0,5.592c-0,0.942 -0.375,1.846 -1.038,2.508l-7.962,7.963c-0.667,0.662 -1.567,1.037 -2.505,1.037l-32.5,0c-0.941,0 -1.841,-0.375 -2.508,-1.037l-7.962,-7.963c-0.663,-0.662 -1.038,-1.566 -1.038,-2.508l0,-2.075c-0.637,-7.35 -6.796,-12.992 -14.171,-12.992l-15.266,0c-2.35,2.292 -6.096,2.292 -8.446,0l-10.542,0c-5.217,0 -9.45,-4.229 -9.45,-9.45l0,-6.566l-20.075,-0l0,-22.442l20.075,0l0,-6.421c0,-5.221 4.233,-9.45 9.45,-9.45Z" style="fill:none;fill-rule:nonzero;stroke:#000;stroke-width:1.18px;"/><rect x="1083.92" y="202.015" width="6.233" height="5.904" style="fill:none;stroke:#000;stroke-width:1.18px;"/><rect x="1054.25" y="202.015" width="6.233" height="5.904" style="fill:none;stroke:#000;stroke-width:1.18px;"/><path d="M1140.25,192.094c0,-3.336 -2.708,-6.044 -6.044,-6.044c-3.335,0 -6.043,2.708 -6.043,6.044c-0,3.336 2.708,6.044 6.043,6.044c3.336,-0 6.044,-2.708 6.044,-6.044Z" style="fill:none;stroke:#000;stroke-width:1.18px;"/><path d="M1016.24,192.094c-0,-3.336 -2.708,-6.044 -6.044,-6.044c-3.336,0 -6.044,2.708 -6.044,6.044c0,3.336 2.708,6.044 6.044,6.044c3.336,-0 6.044,-2.708 6.044,-6.044Z" style="fill:none;stroke:#000;stroke-width:1.18px;"/><path d="M1140.25,328.866c0,-3.336 -2.708,-6.044 -6.044,-6.044c-3.335,-0 -6.043,2.708 -6.043,6.044c-0,3.335 2.708,6.043 6.043,6.043c3.336,0 6.044,-2.708 6.044,-6.043Z" style="fill:none;stroke:#000;stroke-width:1.18px;"/><path d="M1144.35,266.803c3.492,-3.425 3.55,-9.034 0.121,-12.525l-0.121,-0.125c0.53,-1.1 0.071,-2.425 -1.033,-2.959c-0.987,-0.475 -2.179,-0.158 -2.792,0.75c-4.716,-1.312 -9.6,1.446 -10.912,6.159c-0.017,0.054 -0.029,0.108 -0.046,0.166c-1.221,0.092 -2.137,1.154 -2.042,2.371c0.075,1.096 0.946,1.967 2.042,2.046c1.221,4.737 6.05,7.592 10.788,6.371c0.058,-0.013 0.112,-0.029 0.17,-0.046c0.688,1.012 2.063,1.275 3.075,0.587c0.909,-0.62 1.225,-1.808 0.75,-2.795Z" style="fill:none;fill-rule:nonzero;stroke:#000;stroke-width:1.18px;"/><path d="M1091.1,260.48c0,-10.43 -8.467,-18.898 -18.897,-18.898c-10.43,-0 -18.898,8.468 -18.898,18.898c-0,10.43 8.468,18.898 18.898,18.898c10.43,-0 18.897,-8.468 18.897,-18.898Z" style="fill:none;stroke:#000;stroke-width:1.18px;"/><path d="M983.62,331.346c-0,9.783 7.929,17.716 17.716,17.716" style="fill:none;fill-rule:nonzero;stroke:#000;stroke-width:1.18px;"/><path d="M1143.07,349.062c9.783,-0 17.717,-7.934 17.717,-17.717" style="fill:none;fill-rule:nonzero;stroke:#000;stroke-width:1.18px;"/><path d="M1160.78,189.612c0,-9.784 -7.933,-17.717 -17.716,-17.717" style="fill:none;fill-rule:nonzero;stroke:#000;stroke-width:1.18px;"/><path d="M1137.22,148.276c26.021,0 47.187,21.167 47.187,47.184l0,555.233c0,26.017 -21.166,47.188 -47.187,47.188l-130.034,-0c-26.016,-0 -47.187,-21.171 -47.187,-47.188l-0,-555.233c-0,-26.017 21.171,-47.184 47.187,-47.184l130.034,0Z" style="fill:none;fill-rule:nonzero;stroke:#000;stroke-width:2.95px;stroke-linecap:round;stroke-linejoin:round;"/></g><path d="M102.413,679.352c-3.492,3.425 -3.55,9.033 -0.121,12.525c0.038,0.046 0.079,0.083 0.121,0.125c-0.529,1.1 -0.071,2.425 1.033,2.954c0.988,0.479 2.18,0.158 2.796,-0.75c4.713,1.317 9.596,-1.442 10.909,-6.154c0.016,-0.054 0.029,-0.109 0.045,-0.167c1.221,-0.092 2.138,-1.154 2.046,-2.371c-0.079,-1.096 -0.95,-1.966 -2.046,-2.05c-1.22,-4.733 -6.05,-7.587 -10.787,-6.366c-0.058,0.012 -0.113,0.029 -0.167,0.045c-0.687,-1.012 -2.066,-1.275 -3.079,-0.587c-0.908,0.621 -1.225,1.808 -0.75,2.796Z" style="fill:none;fill-rule:nonzero;stroke:#000;stroke-width:1.18px;"/><path d="M97.795,704.055l38.975,-0c5.162,-0 9.729,3.35 11.287,8.266c2.859,9.059 10.621,15.705 20.013,17.13l22.158,-0c0.938,-0 1.838,0.375 2.5,1.037l7.967,7.963c0.662,0.666 1.037,1.566 1.037,2.504l0,4.958l20.042,0l-0,21.946l-20.042,-0l0,5.596c0,0.941 -0.375,1.841 -1.037,2.504l-7.967,7.967c-0.662,0.662 -1.562,1.037 -2.5,1.037l-32.5,0c-0.942,0 -1.842,-0.375 -2.508,-1.037l-7.963,-7.967c-0.662,-0.663 -1.037,-1.563 -1.037,-2.504l-0,-2.075c-0.638,-7.35 -6.796,-12.992 -14.171,-12.992l-15.267,0c-2.35,2.292 -6.096,2.292 -8.446,0l-10.541,0c-5.217,0 -9.45,-4.233 -9.45,-9.454l-0,-6.567l-20.079,0l-0,-22.437l20.079,-0l-0,-6.425c-0,-5.217 4.233,-9.45 9.45,-9.45Z" style="fill:none;fill-rule:nonzero;stroke:#000;stroke-width:1.18px;"/><rect x="186.286" y="627.211" width="6.238" height="5.904" style="fill:none;stroke:#000;stroke-width:1.18px;"/><rect x="156.611" y="627.211" width="6.238" height="5.904" style="fill:none;stroke:#000;stroke-width:1.18px;"/><path d="M242.619,617.289c-0,-3.336 -2.708,-6.044 -6.044,-6.044c-3.335,0 -6.044,2.708 -6.044,6.044c0,3.336 2.709,6.044 6.044,6.044c3.336,-0 6.044,-2.708 6.044,-6.044Z" style="fill:none;stroke:#000;stroke-width:1.18px;"/><path d="M118.603,617.289c0,-3.336 -2.708,-6.044 -6.043,-6.044c-3.336,0 -6.044,2.708 -6.044,6.044c-0,3.336 2.708,6.044 6.044,6.044c3.335,-0 6.043,-2.708 6.043,-6.044Z" style="fill:none;stroke:#000;stroke-width:1.18px;"/><path d="M242.619,754.061c-0,-3.336 -2.708,-6.044 -6.044,-6.044c-3.335,-0 -6.044,2.708 -6.044,6.044c0,3.335 2.709,6.043 6.044,6.043c3.336,0 6.044,-2.708 6.044,-6.043Z" style="fill:none;stroke:#000;stroke-width:1.18px;"/><path d="M246.721,692.002c3.491,-3.425 3.55,-9.037 0.12,-12.529l-0.12,-0.121c0.529,-1.104 0.07,-2.425 -1.034,-2.958c-0.987,-0.475 -2.179,-0.158 -2.796,0.75c-4.712,-1.317 -9.595,1.442 -10.908,6.154c-0.017,0.058 -0.029,0.113 -0.046,0.167c-1.221,0.096 -2.137,1.158 -2.046,2.375c0.08,1.091 0.95,1.962 2.046,2.046c1.221,4.733 6.05,7.587 10.788,6.366c0.058,-0.012 0.112,-0.029 0.166,-0.046c0.688,1.013 2.067,1.275 3.08,0.588c0.908,-0.617 1.225,-1.808 0.75,-2.792Z" style="fill:none;fill-rule:nonzero;stroke:#000;stroke-width:1.18px;"/><path d="M193.465,685.675c0,-10.429 -8.468,-18.896 -18.898,-18.896c-10.43,-0 -18.898,8.467 -18.898,18.896c0,10.429 8.468,18.896 18.898,18.896c10.43,-0 18.898,-8.467 18.898,-18.896Z" style="fill:none;stroke:#000;stroke-width:1.18px;"/><path d="M103.699,597.093c-9.783,-0 -17.717,7.929 -17.717,17.716" style="fill:none;fill-rule:nonzero;stroke:#000;stroke-width:1.18px;"/><path d="M85.982,756.541c0,9.787 7.934,17.716 17.717,17.716" style="fill:none;fill-rule:nonzero;stroke:#000;stroke-width:1.18px;"/><path d="M245.435,774.257c9.783,0 17.716,-7.929 17.716,-17.716" style="fill:none;fill-rule:nonzero;stroke:#000;stroke-width:1.18px;"/><path d="M263.151,614.809c-0,-9.788 -7.933,-17.717 -17.717,-17.717" style="fill:none;fill-rule:nonzero;stroke:#000;stroke-width:1.18px;"/><path d="M102.413,466.754c-3.492,3.421 -3.55,9.033 -0.121,12.525l0.121,0.121c-0.529,1.104 -0.071,2.425 1.033,2.958c0.988,0.475 2.18,0.158 2.796,-0.75c4.713,1.317 9.596,-1.442 10.909,-6.154c0.016,-0.058 0.029,-0.108 0.045,-0.167c1.221,-0.091 2.138,-1.154 2.046,-2.371c-0.079,-1.095 -0.95,-1.966 -2.046,-2.05c-1.22,-4.733 -6.05,-7.587 -10.787,-6.366c-0.058,0.012 -0.113,0.029 -0.167,0.046c-0.687,-1.013 -2.066,-1.275 -3.079,-0.588c-0.908,0.621 -1.225,1.808 -0.75,2.796Z" style="fill:none;fill-rule:nonzero;stroke:#000;stroke-width:1.18px;"/><path d="M97.795,491.457l38.975,-0c5.162,-0 9.729,3.346 11.287,8.266c2.859,9.059 10.621,15.7 20.013,17.13l22.158,-0c0.938,-0 1.838,0.375 2.5,1.037l7.967,7.963c0.662,0.662 1.037,1.566 1.037,2.504l0,4.958l20.042,0l-0,21.946l-20.042,-0l0,5.592c0,0.941 -0.375,1.845 -1.037,2.508l-7.967,7.962c-0.662,0.667 -1.562,1.038 -2.5,1.038l-32.5,-0c-0.942,-0 -1.842,-0.371 -2.508,-1.038l-7.963,-7.962c-0.662,-0.663 -1.037,-1.567 -1.037,-2.508l-0,-2.075c-0.638,-7.346 -6.796,-12.992 -14.171,-12.992l-15.267,-0c-2.35,2.292 -6.096,2.292 -8.446,-0l-10.541,-0c-5.217,-0 -9.45,-4.229 -9.45,-9.45l-0,-6.567l-20.079,0l-0,-22.437l20.079,-0l-0,-6.425c-0,-5.217 4.233,-9.45 9.45,-9.45Z" style="fill:none;fill-rule:nonzero;stroke:#000;stroke-width:1.18px;"/><rect x="186.286" y="414.615" width="6.238" height="5.904" style="fill:none;stroke:#000;stroke-width:1.18px;"/><rect x="156.611" y="414.615" width="6.238" height="5.904" style="fill:none;stroke:#000;stroke-width:1.18px;"/><path d="M242.619,404.691c-0,-3.335 -2.708,-6.043 -6.044,-6.043c-3.335,-0 -6.044,2.708 -6.044,6.043c0,3.336 2.709,6.044 6.044,6.044c3.336,0 6.044,-2.708 6.044,-6.044Z" style="fill:none;stroke:#000;stroke-width:1.18px;"/><path d="M118.603,404.691c0,-3.335 -2.708,-6.043 -6.043,-6.043c-3.336,-0 -6.044,2.708 -6.044,6.043c-0,3.336 2.708,6.044 6.044,6.044c3.335,0 6.043,-2.708 6.043,-6.044Z" style="fill:none;stroke:#000;stroke-width:1.18px;"/><path d="M242.619,541.463c-0,-3.336 -2.708,-6.044 -6.044,-6.044c-3.335,0 -6.044,2.708 -6.044,6.044c0,3.336 2.709,6.044 6.044,6.044c3.336,-0 6.044,-2.708 6.044,-6.044Z" style="fill:none;stroke:#000;stroke-width:1.18px;"/><path d="M246.721,479.401c3.491,-3.421 3.55,-9.034 0.12,-12.525l-0.12,-0.121c0.529,-1.104 0.07,-2.429 -1.034,-2.959c-0.987,-0.475 -2.179,-0.158 -2.796,0.75c-4.712,-1.316 -9.595,1.442 -10.908,6.155c-0.017,0.058 -0.029,0.108 -0.046,0.166c-1.221,0.092 -2.137,1.154 -2.046,2.371c0.08,1.096 0.95,1.967 2.046,2.05c1.221,4.733 6.05,7.588 10.788,6.367c0.058,-0.013 0.112,-0.029 0.166,-0.046c0.688,1.012 2.067,1.275 3.08,0.587c0.908,-0.62 1.225,-1.808 0.75,-2.795Z" style="fill:none;fill-rule:nonzero;stroke:#000;stroke-width:1.18px;"/><path d="M193.465,473.077c0,-10.429 -8.468,-18.896 -18.898,-18.896c-10.43,0 -18.898,8.467 -18.898,18.896c0,10.429 8.468,18.896 18.898,18.896c10.43,0 18.898,-8.467 18.898,-18.896Z" style="fill:none;stroke:#000;stroke-width:1.18px;"/><path d="M103.699,384.495c-9.783,-0 -17.717,7.929 -17.717,17.716" style="fill:none;fill-rule:nonzero;stroke:#000;stroke-width:1.18px;"/><path d="M85.982,543.943c0,9.788 7.934,17.717 17.717,17.717" style="fill:none;fill-rule:nonzero;stroke:#000;stroke-width:1.18px;"/><path d="M245.435,561.66c9.783,-0 17.716,-7.929 17.716,-17.717" style="fill:none;fill-rule:nonzero;stroke:#000;stroke-width:1.18px;"/><path d="M263.151,402.211c-0,-9.787 -7.933,-17.716 -17.717,-17.716" style="fill:none;fill-rule:nonzero;stroke:#000;stroke-width:1.18px;"/><path d="M102.413,254.154c-3.492,3.425 -3.55,9.034 -0.121,12.525l0.121,0.125c-0.529,1.1 -0.071,2.425 1.033,2.959c0.988,0.475 2.18,0.158 2.796,-0.75c4.713,1.312 9.596,-1.446 10.909,-6.159c0.016,-0.054 0.029,-0.108 0.045,-0.166c1.221,-0.092 2.138,-1.155 2.046,-2.371c-0.079,-1.096 -0.95,-1.967 -2.046,-2.046c-1.22,-4.738 -6.05,-7.588 -10.787,-6.371c-0.058,0.013 -0.113,0.029 -0.167,0.046c-0.687,-1.013 -2.066,-1.275 -3.079,-0.588c-0.908,0.621 -1.225,1.809 -0.75,2.796Z" style="fill:none;fill-rule:nonzero;stroke:#000;stroke-width:1.18px;"/><path d="M97.795,278.859l38.975,0c5.162,0 9.729,3.346 11.287,8.267c2.859,9.058 10.621,15.7 20.013,17.129l22.158,0c0.938,0 1.838,0.371 2.5,1.038l7.967,7.962c0.662,0.663 1.037,1.567 1.037,2.504l0,4.954l20.042,0l-0,21.95l-20.042,0l0,5.592c0,0.942 -0.375,1.846 -1.037,2.508l-7.967,7.963c-0.662,0.662 -1.562,1.037 -2.5,1.037l-32.5,0c-0.942,0 -1.842,-0.375 -2.508,-1.037l-7.963,-7.963c-0.662,-0.662 -1.037,-1.566 -1.037,-2.508l-0,-2.075c-0.638,-7.346 -6.796,-12.992 -14.171,-12.992l-15.267,0c-2.35,2.292 -6.096,2.292 -8.446,0l-10.541,0c-5.217,0 -9.45,-4.229 -9.45,-9.45l-0,-6.566l-20.079,-0l-0,-22.438l20.079,0l-0,-6.425c-0,-5.216 4.233,-9.45 9.45,-9.45Z" style="fill:none;fill-rule:nonzero;stroke:#000;stroke-width:1.18px;"/><rect x="186.286" y="202.015" width="6.238" height="5.904" style="fill:none;stroke:#000;stroke-width:1.18px;"/><rect x="156.611" y="202.015" width="6.238" height="5.904" style="fill:none;stroke:#000;stroke-width:1.18px;"/><path d="M242.619,192.092c-0,-3.336 -2.708,-6.044 -6.044,-6.044c-3.335,0 -6.044,2.708 -6.044,6.044c0,3.335 2.709,6.044 6.044,6.044c3.336,-0 6.044,-2.709 6.044,-6.044Z" style="fill:none;stroke:#000;stroke-width:1.18px;"/><path d="M118.603,192.092c0,-3.336 -2.708,-6.044 -6.043,-6.044c-3.336,0 -6.044,2.708 -6.044,6.044c-0,3.335 2.708,6.044 6.044,6.044c3.335,-0 6.043,-2.709 6.043,-6.044Z" style="fill:none;stroke:#000;stroke-width:1.18px;"/><path d="M242.619,328.866c-0,-3.336 -2.708,-6.044 -6.044,-6.044c-3.335,-0 -6.044,2.708 -6.044,6.044c0,3.335 2.709,6.043 6.044,6.043c3.336,0 6.044,-2.708 6.044,-6.043Z" style="fill:none;stroke:#000;stroke-width:1.18px;"/><path d="M246.721,266.803c3.491,-3.425 3.55,-9.034 0.12,-12.525l-0.12,-0.125c0.529,-1.1 0.07,-2.425 -1.034,-2.959c-0.987,-0.475 -2.179,-0.158 -2.796,0.75c-4.712,-1.312 -9.595,1.446 -10.908,6.159c-0.017,0.054 -0.029,0.108 -0.046,0.166c-1.221,0.092 -2.137,1.154 -2.046,2.371c0.08,1.096 0.95,1.967 2.046,2.046c1.221,4.737 6.05,7.592 10.788,6.371c0.058,-0.013 0.112,-0.029 0.166,-0.046c0.688,1.012 2.067,1.275 3.08,0.587c0.908,-0.62 1.225,-1.808 0.75,-2.795Z" style="fill:none;fill-rule:nonzero;stroke:#000;stroke-width:1.18px;"/><path d="M193.465,260.478c0,-10.43 -8.468,-18.898 -18.898,-18.898c-10.43,-0 -18.898,8.468 -18.898,18.898c0,10.43 8.468,18.898 18.898,18.898c10.43,-0 18.898,-8.468 18.898,-18.898Z" style="fill:none;stroke:#000;stroke-width:1.18px;"/><path d="M103.699,171.895c-9.783,0 -17.717,7.933 -17.717,17.717" style="fill:none;fill-rule:nonzero;stroke:#000;stroke-width:1.18px;"/><path d="M85.982,331.346c0,9.787 7.934,17.716 17.717,17.716" style="fill:none;fill-rule:nonzero;stroke:#000;stroke-width:1.18px;"/><path d="M245.435,349.062c9.783,-0 17.716,-7.929 17.716,-17.717" style="fill:none;fill-rule:nonzero;stroke:#000;stroke-width:1.18px;"/><path d="M239.583,148.276c26.017,0 47.188,21.167 47.188,47.184l-0,555.233c-0,26.017 -21.171,47.188 -47.188,47.188l-130.033,-0c-26.021,-0 -47.187,-21.171 -47.187,-47.188l-0,-555.233c-0,-26.017 21.166,-47.184 47.187,-47.184l130.033,0Z" style="fill:none;fill-rule:nonzero;stroke:#000;stroke-width:2.95px;stroke-linecap:round;stroke-linejoin:round;"/><g><path d="M1290.29,757.826c3.425,3.495 9.033,3.55 12.529,0.12l0.121,-0.12c1.104,0.533 2.425,0.07 2.958,-1.03c0.475,-0.987 0.159,-2.179 -0.75,-2.795c1.313,-4.713 -1.441,-9.6 -6.154,-10.909c-0.058,-0.016 -0.112,-0.033 -0.171,-0.046c-0.091,-1.22 -1.154,-2.137 -2.371,-2.045c-1.091,0.079 -1.962,0.95 -2.045,2.045c-4.734,1.217 -7.588,6.046 -6.371,10.788c0.016,0.054 0.033,0.108 0.05,0.167c-1.013,0.687 -1.275,2.066 -0.588,3.075c0.617,0.908 1.804,1.225 2.792,0.75Z" style="fill:none;fill-rule:nonzero;stroke:#000;stroke-width:1.18px;"/><path d="M1314.99,762.444l0,-38.975c0,-5.163 3.346,-9.725 8.267,-11.283c9.058,-2.863 15.7,-10.621 17.129,-20.013l-0,-22.158c-0,-0.938 0.371,-1.842 1.037,-2.504l7.963,-7.963c0.662,-0.662 1.567,-1.037 2.504,-1.037l4.954,-0l0,-20.042l21.95,-0l0,20.042l5.592,-0c0.942,-0 1.846,0.375 2.508,1.037l7.963,7.963c0.662,0.662 1.037,1.566 1.037,2.504l0,32.496c0,0.941 -0.375,1.845 -1.037,2.508l-7.963,7.962c-0.662,0.667 -1.566,1.038 -2.508,1.038l-2.075,-0c-7.346,0.642 -12.992,6.796 -12.992,14.175l0,15.267c2.292,2.35 2.292,6.091 0,8.441l0,10.542c0,5.221 -4.233,9.454 -9.45,9.454l-6.566,0l-0,20.075l-22.442,0l-0,-20.075l-6.421,0c-5.221,0 -9.45,-4.233 -9.45,-9.454Z" style="fill:none;fill-rule:nonzero;stroke:#000;stroke-width:1.18px;"/><path d="M1238.14,673.956l-0,-6.234l5.908,0l0,6.234l-5.908,-0Z" style="fill:none;stroke:#000;stroke-width:1.18px;"/><path d="M1238.14,703.626l-0,-6.233l5.908,0l0,6.233l-5.908,0Z" style="fill:none;stroke:#000;stroke-width:1.18px;"/><circle cx="1228.23" cy="623.665" r="6.042" style="fill:none;stroke:#000;stroke-width:1.18px;"/><circle cx="1228.23" cy="747.681" r="6.042" style="fill:none;stroke:#000;stroke-width:1.18px;"/><circle cx="1365" cy="623.665" r="6.042" style="fill:none;stroke:#000;stroke-width:1.18px;"/><path d="M1302.94,613.522c-3.425,-3.492 -9.033,-3.55 -12.525,-0.121c-0.045,0.037 -0.083,0.079 -0.125,0.121c-1.1,-0.534 -2.425,-0.071 -2.954,1.029c-0.479,0.987 -0.158,2.179 0.75,2.796c-1.316,4.712 1.438,9.6 6.154,10.908c0.055,0.017 0.109,0.033 0.167,0.046c0.092,1.221 1.154,2.137 2.371,2.046c1.096,-0.079 1.967,-0.95 2.046,-2.046c4.737,-1.217 7.591,-6.046 6.371,-10.788c-0.017,-0.054 -0.03,-0.108 -0.046,-0.166c1.008,-0.688 1.275,-2.063 0.587,-3.075c-0.621,-0.909 -1.808,-1.225 -2.796,-0.75Z" style="fill:none;fill-rule:nonzero;stroke:#000;stroke-width:1.18px;"/><ellipse cx="1296.61" cy="685.673" rx="18.898" ry="18.896" style="fill:none;stroke:#000;stroke-width:1.18px;"/><path d="M1208.03,756.54c-0,9.787 7.929,17.716 17.717,17.716" style="fill:none;fill-rule:nonzero;stroke:#000;stroke-width:1.18px;"/><path d="M1367.48,774.256c9.783,-0 17.717,-7.929 17.717,-17.717" style="fill:none;fill-rule:nonzero;stroke:#000;stroke-width:1.18px;"/><path d="M1385.2,614.808c-0,-9.788 -7.934,-17.717 -17.717,-17.717" style="fill:none;fill-rule:nonzero;stroke:#000;stroke-width:1.18px;"/><path d="M1225.75,597.091c-9.787,0 -17.716,7.93 -17.716,17.717" style="fill:none;fill-rule:nonzero;stroke:#000;stroke-width:1.18px;"/><path d="M1290.29,545.228c3.425,3.491 9.033,3.55 12.529,0.12l0.121,-0.12c1.104,0.533 2.425,0.07 2.958,-1.034c0.475,-0.983 0.159,-2.179 -0.75,-2.791c1.313,-4.713 -1.441,-9.6 -6.154,-10.913c-0.058,-0.012 -0.112,-0.029 -0.171,-0.046c-0.091,-1.216 -1.154,-2.133 -2.371,-2.041c-1.091,0.079 -1.962,0.945 -2.045,2.041c-4.734,1.221 -7.588,6.05 -6.371,10.788l0.05,0.171c-1.013,0.687 -1.275,2.062 -0.588,3.075c0.617,0.908 1.804,1.225 2.792,0.75Z" style="fill:none;fill-rule:nonzero;stroke:#000;stroke-width:1.18px;"/><path d="M1314.99,549.846l0,-38.975c0,-5.163 3.346,-9.725 8.267,-11.283c9.058,-2.863 15.7,-10.625 17.129,-20.017l-0,-22.154c-0,-0.938 0.371,-1.842 1.037,-2.504l7.963,-7.963c0.662,-0.667 1.567,-1.037 2.504,-1.037l4.954,-0l0,-20.042l21.95,-0l0,20.042l5.592,-0c0.942,-0 1.846,0.37 2.508,1.037l7.963,7.963c0.662,0.662 1.037,1.566 1.037,2.504l0,32.496c0,0.941 -0.375,1.845 -1.037,2.508l-7.963,7.962c-0.662,0.667 -1.566,1.038 -2.508,1.038l-2.075,-0c-7.346,0.642 -12.992,6.796 -12.992,14.171l0,15.271c2.292,2.35 2.292,6.091 0,8.441l0,10.542c0,5.221 -4.233,9.45 -9.45,9.45l-6.566,-0l-0,20.079l-22.442,0l-0,-20.079l-6.421,-0c-5.221,-0 -9.45,-4.229 -9.45,-9.45Z" style="fill:none;fill-rule:nonzero;stroke:#000;stroke-width:1.18px;"/><path d="M1238.14,461.356l-0,-6.234l5.908,0l0,6.234l-5.908,-0Z" style="fill:none;stroke:#000;stroke-width:1.18px;"/><path d="M1238.14,491.026l-0,-6.233l5.908,0l0,6.233l-5.908,0Z" style="fill:none;stroke:#000;stroke-width:1.18px;"/><circle cx="1228.23" cy="411.068" r="6.042" style="fill:none;stroke:#000;stroke-width:1.18px;"/><circle cx="1228.23" cy="535.083" r="6.042" style="fill:none;stroke:#000;stroke-width:1.18px;"/><circle cx="1365" cy="411.068" r="6.042" style="fill:none;stroke:#000;stroke-width:1.18px;"/><path d="M1302.94,400.924c-3.425,-3.496 -9.033,-3.55 -12.525,-0.121c-0.045,0.038 -0.083,0.08 -0.125,0.121c-1.1,-0.533 -2.425,-0.071 -2.954,1.029c-0.479,0.988 -0.158,2.18 0.75,2.796c-1.316,4.713 1.438,9.6 6.154,10.909c0.055,0.016 0.109,0.033 0.167,0.045c0.092,1.221 1.154,2.138 2.371,2.046c1.096,-0.079 1.967,-0.95 2.046,-2.046c4.737,-1.216 7.591,-6.045 6.371,-10.787c-0.017,-0.058 -0.03,-0.108 -0.046,-0.167c1.008,-0.687 1.275,-2.066 0.587,-3.075c-0.621,-0.908 -1.808,-1.225 -2.796,-0.75Z" style="fill:none;fill-rule:nonzero;stroke:#000;stroke-width:1.18px;"/><ellipse cx="1296.61" cy="473.076" rx="18.898" ry="18.896" style="fill:none;stroke:#000;stroke-width:1.18px;"/><path d="M1208.03,543.942c-0,9.787 7.929,17.716 17.717,17.716" style="fill:none;fill-rule:nonzero;stroke:#000;stroke-width:1.18px;"/><path d="M1367.48,561.658c9.783,0 17.717,-7.929 17.717,-17.716" style="fill:none;fill-rule:nonzero;stroke:#000;stroke-width:1.18px;"/><path d="M1385.2,402.21c-0,-9.787 -7.934,-17.717 -17.717,-17.717" style="fill:none;fill-rule:nonzero;stroke:#000;stroke-width:1.18px;"/><path d="M1225.75,384.493c-9.787,0 -17.716,7.93 -17.716,17.717" style="fill:none;fill-rule:nonzero;stroke:#000;stroke-width:1.18px;"/><path d="M1290.29,332.63c3.425,3.492 9.033,3.55 12.529,0.121l0.121,-0.121c1.104,0.529 2.425,0.071 2.958,-1.033c0.475,-0.988 0.159,-2.179 -0.75,-2.792c1.313,-4.717 -1.441,-9.6 -6.154,-10.912c-0.058,-0.017 -0.112,-0.03 -0.171,-0.046c-0.091,-1.221 -1.154,-2.138 -2.371,-2.042c-1.091,0.075 -1.962,0.946 -2.045,2.042c-4.734,1.221 -7.588,6.05 -6.371,10.787l0.05,0.171c-1.013,0.688 -1.275,2.063 -0.588,3.075c0.617,0.908 1.804,1.225 2.792,0.75Z" style="fill:none;fill-rule:nonzero;stroke:#000;stroke-width:1.18px;"/><path d="M1314.99,337.248l0,-38.975c0,-5.162 3.346,-9.725 8.267,-11.287c9.058,-2.858 15.7,-10.621 17.129,-20.013l-0,-22.158c-0,-0.933 0.371,-1.837 1.037,-2.5l7.963,-7.962c0.662,-0.667 1.567,-1.038 2.504,-1.038l4.954,0l0,-20.046l21.95,0l0,20.046l5.592,0c0.942,0 1.846,0.371 2.508,1.038l7.963,7.962c0.662,0.663 1.037,1.567 1.037,2.5l0,32.5c0,0.942 -0.375,1.846 -1.037,2.508l-7.963,7.963c-0.662,0.662 -1.566,1.037 -2.508,1.037l-2.075,0c-7.346,0.638 -12.992,6.796 -12.992,14.171l0,15.267c2.292,2.35 2.292,6.096 0,8.446l0,10.541c0,5.221 -4.233,9.45 -9.45,9.45l-6.566,0l-0,20.08l-22.442,-0l-0,-20.08l-6.421,0c-5.221,0 -9.45,-4.229 -9.45,-9.45Z" style="fill:none;fill-rule:nonzero;stroke:#000;stroke-width:1.18px;"/><path d="M1238.14,248.76l-0,-6.234l5.908,0l0,6.234l-5.908,-0Z" style="fill:none;stroke:#000;stroke-width:1.18px;"/><path d="M1238.14,278.431l-0,-6.234l5.908,0l0,6.234l-5.908,-0Z" style="fill:none;stroke:#000;stroke-width:1.18px;"/><ellipse cx="1228.23" cy="198.468" rx="6.042" ry="6.044" style="fill:none;stroke:#000;stroke-width:1.18px;"/><ellipse cx="1228.23" cy="322.483" rx="6.042" ry="6.044" style="fill:none;stroke:#000;stroke-width:1.18px;"/><ellipse cx="1365" cy="198.468" rx="6.042" ry="6.044" style="fill:none;stroke:#000;stroke-width:1.18px;"/><path d="M1302.94,188.327c-3.425,-3.496 -9.033,-3.55 -12.525,-0.125c-0.045,0.037 -0.083,0.079 -0.125,0.125c-1.1,-0.534 -2.425,-0.075 -2.954,1.029c-0.479,0.987 -0.158,2.179 0.75,2.796c-1.316,4.712 1.438,9.596 6.154,10.908c0.055,0.017 0.109,0.033 0.167,0.046c0.092,1.221 1.154,2.137 2.371,2.046c1.096,-0.079 1.967,-0.95 2.046,-2.046c4.737,-1.221 7.591,-6.05 6.371,-10.788c-0.017,-0.058 -0.03,-0.112 -0.046,-0.166c1.008,-0.688 1.275,-2.067 0.587,-3.075c-0.621,-0.909 -1.808,-1.229 -2.796,-0.75Z" style="fill:none;fill-rule:nonzero;stroke:#000;stroke-width:1.18px;"/><circle cx="1296.61" cy="260.476" r="18.898" style="fill:none;stroke:#000;stroke-width:1.18px;"/><path d="M1208.03,331.344c-0,9.784 7.929,17.717 17.717,17.717" style="fill:none;fill-rule:nonzero;stroke:#000;stroke-width:1.18px;"/><path d="M1367.48,349.061c9.783,-0 17.717,-7.934 17.717,-17.717" style="fill:none;fill-rule:nonzero;stroke:#000;stroke-width:1.18px;"/><path d="M1385.2,189.613c-0,-9.788 -7.934,-17.717 -17.717,-17.717" style="fill:none;fill-rule:nonzero;stroke:#000;stroke-width:1.18px;"/><path d="M1225.75,171.896c-9.787,-0 -17.716,7.929 -17.716,17.717" style="fill:none;fill-rule:nonzero;stroke:#000;stroke-width:1.18px;"/><path d="M1361.57,797.881l-129.921,-0c-26.087,-0 -47.246,-21.155 -47.246,-47.246l0,-555.117c0,-26.092 21.159,-47.242 47.246,-47.242l129.921,0c26.092,0 47.242,21.15 47.242,47.242l-0,555.117c-0,26.091 -21.15,47.246 -47.242,47.246Z" style="fill:none;fill-rule:nonzero;stroke:#000;stroke-width:1.18px;"/></g></g></svg>